<svg width="24" height="24" viewBox="0 0 24 24" xmlns="http://www.w3.org/2000/svg">
    <path d="M11.932 12.193c2.726 0 4.936-2.17 4.936-4.847 0-2.676-2.21-4.846-4.936-4.846S6.996 4.67 6.996 7.346c0 2.677 2.21 4.847 4.936 4.847zm0-6.785c1.09 0 1.974.868 1.974 1.938 0 1.07-.884 1.94-1.974 1.94-1.09 0-1.975-.87-1.975-1.94.002-1.07.885-1.937 1.975-1.938zm1.805 10.71l3.12 3.064c.35.342.488.843.36 1.312-.127.47-.5.835-.978.96-.48.125-.99-.01-1.34-.354l-2.97-2.917L8.96 21.1c-.348.344-.858.48-1.335.354-.478-.125-.85-.49-.98-.96-.127-.47.01-.97.36-1.312l3.12-3.064c-1.044-.196-2.046-.568-2.96-1.1-.65-.387-.86-1.217-.468-1.857.392-.64 1.235-.84 1.89-.46 2.104 1.207 4.713 1.183 6.794-.062.42-.26.95-.28 1.39-.05.44.227.72.667.737 1.15.017.488-.232.946-.652 1.2-.954.58-2.01.98-3.11 1.188z"
          fill="currentColor"/>
</svg>
