<svg width="24" height="24" viewBox="0 0 24 24" xmlns="http://www.w3.org/2000/svg">
    <path d="M21 6.66c-.674.287-1.39.474-2.12.558.77-.442 1.347-1.137 1.623-1.956-.725.412-1.52.702-2.346.857-1.143-1.17-2.965-1.46-4.44-.7-1.475.75-2.235 2.36-1.852 3.92-2.97-.14-5.735-1.48-7.612-3.69-.983 1.61-.482 3.68 1.143 4.713-.586-.018-1.16-.17-1.673-.442v.045c0 1.68 1.24 3.13 2.963 3.464-.544.14-1.114.16-1.668.06.484 1.44 1.87 2.426 3.45 2.455C6.92 17.11 4.952 17.635 3 17.41 4.688 18.45 6.654 19 8.66 19c6.794 0 10.51-5.383 10.51-10.052-.002-.154-.006-.307-.013-.458.723-.5 1.347-1.12 1.843-1.83z"
          fill="currentColor"/>
</svg>
