<svg width="24" height="24" viewBox="0 0 24 24" xmlns="http://www.w3.org/2000/svg">
    <path d="M12.883 17.953s.324-.038.49-.23c.154-.175.15-.506.15-.506s-.023-1.545.647-1.773c.662-.225 1.51 1.493 2.408 2.155.68.5 1.197.39 1.197.39l2.404-.04s1.25-.086.66-1.14c-.05-.09-.35-.787-1.79-2.22-1.51-1.498-1.308-1.255.51-3.847 1.102-1.58 1.55-2.542 1.41-2.955-.13-.393-.95-.29-.95-.29l-2.706.02s-.2-.03-.35.065c-.146.094-.24.31-.24.31s-.43 1.22-1 2.26c-1.203 2.194-1.685 2.31-1.882 2.172-.46-.318-.344-1.276-.344-1.955 0-2.125.3-3.01-.587-3.24-.294-.076-.51-.126-1.263-.135-.965-.01-1.783.005-2.245.248-.308.16-.545.52-.4.54.18.027.584.118.8.43.276.405.265 1.313.265 1.313s.16 2.5-.37 2.81c-.363.214-.864-.22-1.94-2.21-.55-1.018-.965-2.146-.965-2.146s-.08-.208-.223-.322c-.173-.136-.416-.18-.416-.18l-2.572.02s-.385.01-.527.19c-.127.16-.01.49-.01.49s2.012 5.047 4.293 7.59c2.09 2.33 4.465 2.178 4.465 2.178h1.076z"
          fill="currentColor"/>
</svg>
